<mxfile host="app.diagrams.net" modified="2023-04-07T06:48:39.753Z" agent="5.0 (Windows NT 10.0; Win64; x64) AppleWebKit/537.36 (KHTML, like Gecko) Chrome/111.0.0.0 Safari/537.36" etag="KCgs1zR3cfnXyKYNagmj" version="21.0.4" type="github">
  <diagram name="第 1 页" id="hObpAjMVEf-5lWfyqUfK">
    <mxGraphModel dx="3807" dy="1427" grid="1" gridSize="10" guides="1" tooltips="1" connect="1" arrows="1" fold="1" page="1" pageScale="1" pageWidth="1200" pageHeight="1600" math="0" shadow="0">
      <root>
        <mxCell id="0" />
        <mxCell id="1" parent="0" />
        <mxCell id="bJCT51N2lvBpbDXO-fiE-1" value="" style="rounded=0;whiteSpace=wrap;html=1;fontStyle=1;strokeColor=#000000;labelBackgroundColor=none;fillColor=none;fontSize=18;fontFamily=微软雅黑;" vertex="1" parent="1">
          <mxGeometry x="-150" y="250" width="1210" height="240" as="geometry" />
        </mxCell>
        <mxCell id="bJCT51N2lvBpbDXO-fiE-2" value="" style="rounded=0;whiteSpace=wrap;html=1;strokeColor=#000000;fontSize=18;fontStyle=0;fontFamily=微软雅黑;" diagramCategory="general" diagramName="Rectangle" vertex="1" parent="1">
          <mxGeometry x="-112" y="260" width="572" height="220" as="geometry" />
        </mxCell>
        <mxCell id="bJCT51N2lvBpbDXO-fiE-3" value="" style="rounded=0;whiteSpace=wrap;html=1;strokeColor=#000000;fontSize=18;fontStyle=0;fontFamily=微软雅黑;" diagramCategory="general" diagramName="Rectangle" vertex="1" parent="1">
          <mxGeometry x="560" y="270" width="420" height="210" as="geometry" />
        </mxCell>
        <mxCell id="bJCT51N2lvBpbDXO-fiE-4" value="" style="rounded=0;whiteSpace=wrap;html=1;fontFamily=微软雅黑;" diagramCategory="general" diagramName="Rectangle" vertex="1" parent="1">
          <mxGeometry x="-150" y="60" width="1210" height="180" as="geometry" />
        </mxCell>
        <mxCell id="bJCT51N2lvBpbDXO-fiE-5" value="" style="rounded=0;whiteSpace=wrap;html=1;fontStyle=1;strokeColor=#000000;labelBackgroundColor=none;fillColor=none;fontSize=18;fontFamily=微软雅黑;" vertex="1" parent="1">
          <mxGeometry x="490" y="670" width="570" height="150" as="geometry" />
        </mxCell>
        <mxCell id="bJCT51N2lvBpbDXO-fiE-6" value="" style="rounded=0;whiteSpace=wrap;html=1;fillColor=none;fontStyle=1;strokeColor=#000000;fontSize=14;fontFamily=微软雅黑;" vertex="1" parent="1">
          <mxGeometry x="490" y="840" width="570" height="210" as="geometry" />
        </mxCell>
        <mxCell id="bJCT51N2lvBpbDXO-fiE-7" value="" style="rounded=0;whiteSpace=wrap;html=1;fontFamily=微软雅黑;" diagramCategory="general" diagramName="Rectangle" vertex="1" parent="1">
          <mxGeometry x="507" y="860" width="250" height="180" as="geometry" />
        </mxCell>
        <mxCell id="bJCT51N2lvBpbDXO-fiE-8" value="&lt;font style=&quot;font-size: 16px;&quot;&gt;埋点基础建设&lt;/font&gt;" style="rounded=0;whiteSpace=wrap;html=1;fillColor=none;strokeColor=#000000;fontStyle=1;fontSize=14;fontFamily=微软雅黑;" vertex="1" parent="1">
          <mxGeometry x="-150" y="1070" width="620" height="50" as="geometry" />
        </mxCell>
        <mxCell id="bJCT51N2lvBpbDXO-fiE-9" value="资源层" style="rounded=0;whiteSpace=wrap;html=1;fontStyle=1;strokeColor=#000000;labelBackgroundColor=none;fillColor=none;fontSize=18;fontFamily=微软雅黑;" vertex="1" parent="1">
          <mxGeometry x="-309" y="1070" width="140" height="50" as="geometry" />
        </mxCell>
        <mxCell id="bJCT51N2lvBpbDXO-fiE-10" value="贴源层" style="rounded=0;whiteSpace=wrap;html=1;fontStyle=1;strokeColor=#000000;labelBackgroundColor=none;fillColor=none;fontSize=18;fontFamily=微软雅黑;" vertex="1" parent="1">
          <mxGeometry x="-310" y="840" width="140" height="210" as="geometry" />
        </mxCell>
        <mxCell id="bJCT51N2lvBpbDXO-fiE-11" value="" style="rounded=0;whiteSpace=wrap;html=1;fillColor=none;fontStyle=1;strokeColor=#000000;fontSize=14;fontFamily=微软雅黑;" vertex="1" parent="1">
          <mxGeometry x="-150" y="840" width="620" height="210" as="geometry" />
        </mxCell>
        <mxCell id="bJCT51N2lvBpbDXO-fiE-12" value="" style="group;fontStyle=1;fontSize=14;fontFamily=微软雅黑;" connectable="0" vertex="1" parent="1">
          <mxGeometry x="284" y="710" width="280" height="170" as="geometry" />
        </mxCell>
        <mxCell id="bJCT51N2lvBpbDXO-fiE-13" value="&lt;span style=&quot;font-size: 16px;&quot;&gt;业务库&lt;/span&gt;" style="rounded=0;whiteSpace=wrap;html=1;fillColor=none;strokeColor=#000000;fontStyle=1;fontSize=14;fontFamily=微软雅黑;" vertex="1" parent="1">
          <mxGeometry x="490" y="1070" width="570" height="50" as="geometry" />
        </mxCell>
        <mxCell id="bJCT51N2lvBpbDXO-fiE-14" value="" style="group;fontFamily=微软雅黑;" connectable="0" vertex="1" parent="1">
          <mxGeometry x="110" y="880" width="320" height="140" as="geometry" />
        </mxCell>
        <mxCell id="bJCT51N2lvBpbDXO-fiE-15" value="事件" style="text;html=1;strokeColor=none;fillColor=none;align=center;verticalAlign=middle;whiteSpace=wrap;rounded=0;dashed=1;fontStyle=1;fontSize=16;fontFamily=微软雅黑;" vertex="1" parent="bJCT51N2lvBpbDXO-fiE-14">
          <mxGeometry x="123.5" width="80" height="20" as="geometry" />
        </mxCell>
        <mxCell id="bJCT51N2lvBpbDXO-fiE-16" value="" style="rounded=0;whiteSpace=wrap;html=1;fontStyle=1;strokeColor=#000000;fillColor=none;fontSize=14;fontFamily=微软雅黑;" vertex="1" parent="bJCT51N2lvBpbDXO-fiE-14">
          <mxGeometry y="20" width="320" height="120" as="geometry" />
        </mxCell>
        <mxCell id="bJCT51N2lvBpbDXO-fiE-17" value="曝光" style="rounded=1;whiteSpace=wrap;html=1;fontStyle=0;strokeColor=#000000;fillColor=none;fontSize=14;fontFamily=微软雅黑;" vertex="1" parent="bJCT51N2lvBpbDXO-fiE-14">
          <mxGeometry x="273.57843137254895" y="104.34210526315792" width="43.92156862745099" height="23.157894736842106" as="geometry" />
        </mxCell>
        <mxCell id="bJCT51N2lvBpbDXO-fiE-18" value="点击" style="rounded=1;whiteSpace=wrap;html=1;fontStyle=0;strokeColor=#000000;fillColor=none;fontSize=14;fontFamily=微软雅黑;" vertex="1" parent="bJCT51N2lvBpbDXO-fiE-14">
          <mxGeometry x="210.4411764705883" y="104.34210526315792" width="49.41176470588236" height="23.157894736842106" as="geometry" />
        </mxCell>
        <mxCell id="bJCT51N2lvBpbDXO-fiE-19" value="注册" style="rounded=1;whiteSpace=wrap;html=1;fontStyle=0;strokeColor=#000000;fillColor=none;fontSize=14;fontFamily=微软雅黑;" vertex="1" parent="bJCT51N2lvBpbDXO-fiE-14">
          <mxGeometry x="150.04901960784315" y="62.5" width="43.92156862745099" height="23.157894736842106" as="geometry" />
        </mxCell>
        <mxCell id="bJCT51N2lvBpbDXO-fiE-20" value="登录" style="rounded=1;whiteSpace=wrap;html=1;fontStyle=0;strokeColor=#000000;fillColor=none;fontSize=14;fontFamily=微软雅黑;" vertex="1" parent="bJCT51N2lvBpbDXO-fiE-14">
          <mxGeometry x="213.18627450980398" y="62.5" width="43.92156862745099" height="23.157894736842106" as="geometry" />
        </mxCell>
        <mxCell id="bJCT51N2lvBpbDXO-fiE-21" style="edgeStyle=orthogonalEdgeStyle;rounded=0;orthogonalLoop=1;jettySize=auto;html=1;exitX=0.5;exitY=1;exitDx=0;exitDy=0;entryX=0.5;entryY=0;entryDx=0;entryDy=0;fontStyle=1;fontSize=14;fontFamily=微软雅黑;" edge="1" parent="bJCT51N2lvBpbDXO-fiE-14" source="bJCT51N2lvBpbDXO-fiE-22" target="bJCT51N2lvBpbDXO-fiE-17">
          <mxGeometry relative="1" as="geometry" />
        </mxCell>
        <mxCell id="bJCT51N2lvBpbDXO-fiE-22" value="访问" style="rounded=1;whiteSpace=wrap;html=1;fontStyle=0;strokeColor=#000000;fillColor=none;fontSize=14;fontFamily=微软雅黑;" vertex="1" parent="bJCT51N2lvBpbDXO-fiE-14">
          <mxGeometry x="273.57843137254895" y="62.5" width="43.92156862745099" height="23.157894736842106" as="geometry" />
        </mxCell>
        <mxCell id="bJCT51N2lvBpbDXO-fiE-23" style="edgeStyle=orthogonalEdgeStyle;rounded=0;orthogonalLoop=1;jettySize=auto;html=1;exitX=1;exitY=0.5;exitDx=0;exitDy=0;entryX=0;entryY=0.5;entryDx=0;entryDy=0;fontStyle=1;fontSize=14;fontFamily=微软雅黑;" edge="1" parent="bJCT51N2lvBpbDXO-fiE-14" source="bJCT51N2lvBpbDXO-fiE-24" target="bJCT51N2lvBpbDXO-fiE-19">
          <mxGeometry relative="1" as="geometry" />
        </mxCell>
        <mxCell id="bJCT51N2lvBpbDXO-fiE-24" value="下载" style="rounded=1;whiteSpace=wrap;html=1;fontStyle=0;strokeColor=#000000;fillColor=none;fontSize=14;fontFamily=微软雅黑;" vertex="1" parent="bJCT51N2lvBpbDXO-fiE-14">
          <mxGeometry x="92.4019607843137" y="62.5" width="43.92156862745099" height="23.157894736842106" as="geometry" />
        </mxCell>
        <mxCell id="bJCT51N2lvBpbDXO-fiE-25" style="edgeStyle=orthogonalEdgeStyle;rounded=0;orthogonalLoop=1;jettySize=auto;html=1;exitX=1;exitY=0.5;exitDx=0;exitDy=0;entryX=0;entryY=0.5;entryDx=0;entryDy=0;fontStyle=1;fontSize=14;fontFamily=微软雅黑;" edge="1" parent="bJCT51N2lvBpbDXO-fiE-14" source="bJCT51N2lvBpbDXO-fiE-26" target="bJCT51N2lvBpbDXO-fiE-24">
          <mxGeometry relative="1" as="geometry" />
        </mxCell>
        <mxCell id="bJCT51N2lvBpbDXO-fiE-26" value="扫码" style="rounded=1;whiteSpace=wrap;html=1;fontStyle=0;strokeColor=#000000;fillColor=none;fontSize=14;fontFamily=微软雅黑;" vertex="1" parent="bJCT51N2lvBpbDXO-fiE-14">
          <mxGeometry x="3.5" y="62.5" width="77.92" height="23.16" as="geometry" />
        </mxCell>
        <mxCell id="bJCT51N2lvBpbDXO-fiE-27" style="edgeStyle=orthogonalEdgeStyle;rounded=0;orthogonalLoop=1;jettySize=auto;html=1;exitX=0;exitY=0.5;exitDx=0;exitDy=0;entryX=1;entryY=0.5;entryDx=0;entryDy=0;fontStyle=1;fontSize=14;fontFamily=微软雅黑;" edge="1" parent="bJCT51N2lvBpbDXO-fiE-14" source="bJCT51N2lvBpbDXO-fiE-17" target="bJCT51N2lvBpbDXO-fiE-18">
          <mxGeometry relative="1" as="geometry" />
        </mxCell>
        <mxCell id="bJCT51N2lvBpbDXO-fiE-28" style="edgeStyle=orthogonalEdgeStyle;rounded=0;orthogonalLoop=1;jettySize=auto;html=1;exitX=1;exitY=0.5;exitDx=0;exitDy=0;entryX=0;entryY=0.5;entryDx=0;entryDy=0;fontStyle=1;fontSize=14;fontFamily=微软雅黑;" edge="1" parent="bJCT51N2lvBpbDXO-fiE-14" source="bJCT51N2lvBpbDXO-fiE-19" target="bJCT51N2lvBpbDXO-fiE-20">
          <mxGeometry relative="1" as="geometry">
            <mxPoint x="126.75490196078431" y="-233.18421052631584" as="sourcePoint" />
            <mxPoint x="214.0490196078431" y="-240.13157894736844" as="targetPoint" />
          </mxGeometry>
        </mxCell>
        <mxCell id="bJCT51N2lvBpbDXO-fiE-29" style="edgeStyle=orthogonalEdgeStyle;rounded=0;orthogonalLoop=1;jettySize=auto;html=1;exitX=0.5;exitY=0;exitDx=0;exitDy=0;entryX=0.5;entryY=0;entryDx=0;entryDy=0;fontStyle=1;fontSize=14;fontFamily=微软雅黑;" edge="1" parent="bJCT51N2lvBpbDXO-fiE-14" source="bJCT51N2lvBpbDXO-fiE-26" target="bJCT51N2lvBpbDXO-fiE-20">
          <mxGeometry relative="1" as="geometry" />
        </mxCell>
        <mxCell id="bJCT51N2lvBpbDXO-fiE-30" style="edgeStyle=orthogonalEdgeStyle;rounded=0;orthogonalLoop=1;jettySize=auto;html=1;exitX=1;exitY=0.5;exitDx=0;exitDy=0;entryX=0;entryY=0.5;entryDx=0;entryDy=0;fontStyle=1;fontSize=14;fontFamily=微软雅黑;" edge="1" parent="bJCT51N2lvBpbDXO-fiE-14" source="bJCT51N2lvBpbDXO-fiE-20" target="bJCT51N2lvBpbDXO-fiE-22">
          <mxGeometry relative="1" as="geometry" />
        </mxCell>
        <mxCell id="bJCT51N2lvBpbDXO-fiE-31" value="" style="group;strokeColor=none;fontFamily=微软雅黑;" connectable="0" vertex="1" parent="1">
          <mxGeometry x="-110" y="880" width="203.5" height="140" as="geometry" />
        </mxCell>
        <mxCell id="bJCT51N2lvBpbDXO-fiE-32" value="" style="rounded=0;whiteSpace=wrap;html=1;fontStyle=1;fillColor=none;strokeColor=#000000;fontSize=14;fontFamily=微软雅黑;" vertex="1" parent="bJCT51N2lvBpbDXO-fiE-31">
          <mxGeometry y="20" width="103.5" height="120" as="geometry" />
        </mxCell>
        <mxCell id="bJCT51N2lvBpbDXO-fiE-33" value="" style="rounded=0;whiteSpace=wrap;html=1;fontStyle=1;fillColor=none;strokeColor=#000000;fontSize=14;fontFamily=微软雅黑;" vertex="1" parent="bJCT51N2lvBpbDXO-fiE-31">
          <mxGeometry x="103.5" y="20" width="100" height="120" as="geometry" />
        </mxCell>
        <mxCell id="bJCT51N2lvBpbDXO-fiE-34" value="APP" style="text;html=1;strokeColor=none;fillColor=none;align=center;verticalAlign=middle;whiteSpace=wrap;rounded=0;dashed=1;fontStyle=1;fontSize=14;fontFamily=微软雅黑;" vertex="1" parent="bJCT51N2lvBpbDXO-fiE-31">
          <mxGeometry x="25" y="20" width="40" height="20" as="geometry" />
        </mxCell>
        <mxCell id="bJCT51N2lvBpbDXO-fiE-35" value="PC" style="text;html=1;strokeColor=none;fillColor=none;align=center;verticalAlign=middle;whiteSpace=wrap;rounded=0;dashed=1;fontStyle=1;fontSize=14;fontFamily=微软雅黑;" vertex="1" parent="bJCT51N2lvBpbDXO-fiE-31">
          <mxGeometry x="126.5" y="20" width="40" height="20" as="geometry" />
        </mxCell>
        <mxCell id="bJCT51N2lvBpbDXO-fiE-36" value="Android" style="rounded=0;whiteSpace=wrap;html=1;fontStyle=0;strokeColor=#000000;fillColor=none;fontSize=14;fontFamily=微软雅黑;" vertex="1" parent="bJCT51N2lvBpbDXO-fiE-31">
          <mxGeometry x="11.75" y="65.65999999999997" width="80" height="20" as="geometry" />
        </mxCell>
        <mxCell id="bJCT51N2lvBpbDXO-fiE-37" value="IOS" style="rounded=0;whiteSpace=wrap;html=1;fontStyle=0;strokeColor=#000000;fillColor=none;fontSize=14;fontFamily=微软雅黑;" vertex="1" parent="bJCT51N2lvBpbDXO-fiE-31">
          <mxGeometry x="11.75" y="105" width="80" height="20" as="geometry" />
        </mxCell>
        <mxCell id="bJCT51N2lvBpbDXO-fiE-38" value="端" style="text;html=1;strokeColor=none;fillColor=none;align=center;verticalAlign=middle;whiteSpace=wrap;rounded=0;dashed=1;fontStyle=1;fontSize=16;fontFamily=微软雅黑;" vertex="1" parent="bJCT51N2lvBpbDXO-fiE-31">
          <mxGeometry x="65" width="80" height="20" as="geometry" />
        </mxCell>
        <mxCell id="bJCT51N2lvBpbDXO-fiE-39" value="WAP" style="rounded=0;whiteSpace=wrap;html=1;fontStyle=0;strokeColor=#000000;fillColor=none;fontSize=14;fontFamily=微软雅黑;" vertex="1" parent="bJCT51N2lvBpbDXO-fiE-31">
          <mxGeometry x="113.5" y="64.99999999999989" width="80" height="20" as="geometry" />
        </mxCell>
        <mxCell id="bJCT51N2lvBpbDXO-fiE-40" value="用户行为日志" style="text;html=1;strokeColor=none;fillColor=none;align=center;verticalAlign=middle;whiteSpace=wrap;rounded=0;fontStyle=1;fontSize=18;fontFamily=微软雅黑;" diagramCategory="general" diagramName="text" vertex="1" parent="1">
          <mxGeometry x="50" y="850" width="198" height="20" as="geometry" />
        </mxCell>
        <mxCell id="bJCT51N2lvBpbDXO-fiE-41" value="渠道分类" style="rounded=0;whiteSpace=wrap;html=1;strokeColor=#000000;fontSize=18;fontStyle=0;fontFamily=微软雅黑;" diagramCategory="general" diagramName="Rectangle" vertex="1" parent="1">
          <mxGeometry x="532" y="910" width="200" height="30" as="geometry" />
        </mxCell>
        <mxCell id="bJCT51N2lvBpbDXO-fiE-42" value="投放计划" style="rounded=0;whiteSpace=wrap;html=1;strokeColor=#000000;fontSize=18;fontStyle=0;fontFamily=微软雅黑;" diagramCategory="general" diagramName="Rectangle" vertex="1" parent="1">
          <mxGeometry x="532" y="990" width="200" height="30" as="geometry" />
        </mxCell>
        <mxCell id="bJCT51N2lvBpbDXO-fiE-43" value="渠道创建" style="rounded=0;whiteSpace=wrap;html=1;strokeColor=#000000;fontSize=18;fontStyle=0;fontFamily=微软雅黑;" diagramCategory="general" diagramName="Rectangle" vertex="1" parent="1">
          <mxGeometry x="532" y="950" width="200" height="30" as="geometry" />
        </mxCell>
        <mxCell id="bJCT51N2lvBpbDXO-fiE-44" value="数据明细层&lt;br&gt;DWD" style="rounded=0;whiteSpace=wrap;html=1;fontStyle=1;strokeColor=#000000;labelBackgroundColor=none;fillColor=none;fontSize=18;fontFamily=微软雅黑;" vertex="1" parent="1">
          <mxGeometry x="-310" y="500" width="140" height="150" as="geometry" />
        </mxCell>
        <mxCell id="bJCT51N2lvBpbDXO-fiE-45" value="数据汇总层&lt;br&gt;DWS" style="rounded=0;whiteSpace=wrap;html=1;fontStyle=1;strokeColor=#000000;labelBackgroundColor=none;fillColor=none;fontSize=18;fontFamily=微软雅黑;" vertex="1" parent="1">
          <mxGeometry x="-309" y="250" width="139" height="240" as="geometry" />
        </mxCell>
        <mxCell id="bJCT51N2lvBpbDXO-fiE-46" value="表现层" style="rounded=0;whiteSpace=wrap;html=1;fontStyle=1;strokeColor=#000000;labelBackgroundColor=none;fillColor=none;fontSize=18;fontFamily=微软雅黑;" vertex="1" parent="1">
          <mxGeometry x="-309" y="60" width="139" height="180" as="geometry" />
        </mxCell>
        <mxCell id="bJCT51N2lvBpbDXO-fiE-47" value="数据维度&lt;br&gt;DIM" style="rounded=0;whiteSpace=wrap;html=1;fontStyle=1;strokeColor=#000000;labelBackgroundColor=none;fillColor=none;fontSize=18;fontFamily=微软雅黑;" vertex="1" parent="1">
          <mxGeometry x="-310" y="670" width="140" height="150" as="geometry" />
        </mxCell>
        <mxCell id="bJCT51N2lvBpbDXO-fiE-48" value="" style="rounded=0;whiteSpace=wrap;html=1;fontStyle=1;strokeColor=#000000;labelBackgroundColor=none;fillColor=none;fontSize=18;fontFamily=微软雅黑;" vertex="1" parent="1">
          <mxGeometry x="-150" y="670" width="620" height="150" as="geometry" />
        </mxCell>
        <mxCell id="bJCT51N2lvBpbDXO-fiE-49" value="埋点事件" style="rounded=0;whiteSpace=wrap;html=1;strokeColor=#000000;fontSize=18;fontStyle=0;fontFamily=微软雅黑;" diagramCategory="general" diagramName="Rectangle" vertex="1" parent="1">
          <mxGeometry x="-90" y="690" width="220" height="50" as="geometry" />
        </mxCell>
        <mxCell id="bJCT51N2lvBpbDXO-fiE-50" value="渠道管理" style="text;html=1;strokeColor=none;fillColor=none;align=center;verticalAlign=middle;whiteSpace=wrap;rounded=0;fontSize=18;fontStyle=1;fontFamily=微软雅黑;" diagramCategory="general" diagramName="text" vertex="1" parent="1">
          <mxGeometry x="592" y="870" width="80" height="20" as="geometry" />
        </mxCell>
        <mxCell id="bJCT51N2lvBpbDXO-fiE-51" value="" style="rounded=0;whiteSpace=wrap;html=1;fontFamily=微软雅黑;" diagramCategory="general" diagramName="Rectangle" vertex="1" parent="1">
          <mxGeometry x="790" y="860" width="250" height="180" as="geometry" />
        </mxCell>
        <mxCell id="bJCT51N2lvBpbDXO-fiE-52" value="手机注册" style="rounded=0;whiteSpace=wrap;html=1;strokeColor=#000000;fontSize=18;fontStyle=0;fontFamily=微软雅黑;" diagramCategory="general" diagramName="Rectangle" vertex="1" parent="1">
          <mxGeometry x="815" y="910" width="200" height="30" as="geometry" />
        </mxCell>
        <mxCell id="bJCT51N2lvBpbDXO-fiE-53" value="实名认证" style="rounded=0;whiteSpace=wrap;html=1;strokeColor=#000000;fontSize=18;fontStyle=0;fontFamily=微软雅黑;" diagramCategory="general" diagramName="Rectangle" vertex="1" parent="1">
          <mxGeometry x="815" y="990" width="200" height="30" as="geometry" />
        </mxCell>
        <mxCell id="bJCT51N2lvBpbDXO-fiE-54" value="账号绑定" style="rounded=0;whiteSpace=wrap;html=1;strokeColor=#000000;fontSize=18;fontStyle=0;fontFamily=微软雅黑;" diagramCategory="general" diagramName="Rectangle" vertex="1" parent="1">
          <mxGeometry x="815" y="950" width="200" height="30" as="geometry" />
        </mxCell>
        <mxCell id="bJCT51N2lvBpbDXO-fiE-55" value="用户管理" style="text;html=1;strokeColor=none;fillColor=none;align=center;verticalAlign=middle;whiteSpace=wrap;rounded=0;fontSize=18;fontStyle=1;fontFamily=微软雅黑;" diagramCategory="general" diagramName="text" vertex="1" parent="1">
          <mxGeometry x="875" y="870" width="80" height="20" as="geometry" />
        </mxCell>
        <mxCell id="bJCT51N2lvBpbDXO-fiE-56" value="模块" style="rounded=0;whiteSpace=wrap;html=1;strokeColor=#000000;fontSize=18;fontStyle=0;fontFamily=微软雅黑;" diagramCategory="general" diagramName="Rectangle" vertex="1" parent="1">
          <mxGeometry x="-90" y="760" width="220" height="50" as="geometry" />
        </mxCell>
        <mxCell id="bJCT51N2lvBpbDXO-fiE-57" value="栏目" style="rounded=0;whiteSpace=wrap;html=1;strokeColor=#000000;fontSize=18;fontStyle=0;fontFamily=微软雅黑;" diagramCategory="general" diagramName="Rectangle" vertex="1" parent="1">
          <mxGeometry x="170" y="760" width="220" height="50" as="geometry" />
        </mxCell>
        <mxCell id="bJCT51N2lvBpbDXO-fiE-58" value="场景" style="rounded=0;whiteSpace=wrap;html=1;strokeColor=#000000;fontSize=18;fontStyle=0;fontFamily=微软雅黑;" diagramCategory="general" diagramName="Rectangle" vertex="1" parent="1">
          <mxGeometry x="170" y="690" width="220" height="50" as="geometry" />
        </mxCell>
        <mxCell id="bJCT51N2lvBpbDXO-fiE-59" value="用户" style="rounded=0;whiteSpace=wrap;html=1;strokeColor=#000000;fontSize=18;fontStyle=0;fontFamily=微软雅黑;" diagramCategory="general" diagramName="Rectangle" vertex="1" parent="1">
          <mxGeometry x="535" y="685" width="220" height="50" as="geometry" />
        </mxCell>
        <mxCell id="bJCT51N2lvBpbDXO-fiE-60" value="计划" style="rounded=0;whiteSpace=wrap;html=1;strokeColor=#000000;fontSize=18;fontStyle=0;fontFamily=微软雅黑;" diagramCategory="general" diagramName="Rectangle" vertex="1" parent="1">
          <mxGeometry x="535" y="755" width="220" height="50" as="geometry" />
        </mxCell>
        <mxCell id="bJCT51N2lvBpbDXO-fiE-61" value="渠道&amp;amp;计划" style="rounded=0;whiteSpace=wrap;html=1;strokeColor=#000000;fontSize=18;fontStyle=0;fontFamily=微软雅黑;" diagramCategory="general" diagramName="Rectangle" vertex="1" parent="1">
          <mxGeometry x="805" y="755" width="220" height="50" as="geometry" />
        </mxCell>
        <mxCell id="bJCT51N2lvBpbDXO-fiE-62" value="渠道" style="rounded=0;whiteSpace=wrap;html=1;strokeColor=#000000;fontSize=18;fontStyle=0;fontFamily=微软雅黑;" diagramCategory="general" diagramName="Rectangle" vertex="1" parent="1">
          <mxGeometry x="795" y="685" width="220" height="50" as="geometry" />
        </mxCell>
        <mxCell id="bJCT51N2lvBpbDXO-fiE-63" value="" style="rounded=0;whiteSpace=wrap;html=1;fontStyle=1;strokeColor=#000000;labelBackgroundColor=none;fillColor=none;fontSize=18;fontFamily=微软雅黑;" vertex="1" parent="1">
          <mxGeometry x="-150" y="500" width="1210" height="150" as="geometry" />
        </mxCell>
        <mxCell id="bJCT51N2lvBpbDXO-fiE-64" value="用户访问行为数据" style="rounded=0;whiteSpace=wrap;html=1;strokeColor=#000000;fontSize=18;fontStyle=0;fontFamily=微软雅黑;" diagramCategory="general" diagramName="Rectangle" vertex="1" parent="1">
          <mxGeometry x="100" y="550" width="220" height="50" as="geometry" />
        </mxCell>
        <mxCell id="bJCT51N2lvBpbDXO-fiE-65" value="用户点击行为数据" style="rounded=0;whiteSpace=wrap;html=1;strokeColor=#000000;fontSize=18;fontStyle=0;fontFamily=微软雅黑;" diagramCategory="general" diagramName="Rectangle" vertex="1" parent="1">
          <mxGeometry x="339" y="550" width="220" height="50" as="geometry" />
        </mxCell>
        <mxCell id="bJCT51N2lvBpbDXO-fiE-66" value="用户曝光行为数据" style="rounded=0;whiteSpace=wrap;html=1;strokeColor=#000000;fontSize=18;fontStyle=0;fontFamily=微软雅黑;" diagramCategory="general" diagramName="Rectangle" vertex="1" parent="1">
          <mxGeometry x="589" y="550" width="220" height="50" as="geometry" />
        </mxCell>
        <mxCell id="bJCT51N2lvBpbDXO-fiE-67" value="用户注册数据" style="rounded=0;whiteSpace=wrap;html=1;strokeColor=#000000;fontSize=18;fontStyle=0;fontFamily=微软雅黑;" diagramCategory="general" diagramName="Rectangle" vertex="1" parent="1">
          <mxGeometry x="827" y="550" width="220" height="50" as="geometry" />
        </mxCell>
        <mxCell id="bJCT51N2lvBpbDXO-fiE-68" value="用户渠道数据" style="rounded=0;whiteSpace=wrap;html=1;strokeColor=#000000;fontSize=18;fontStyle=0;fontFamily=微软雅黑;" diagramCategory="general" diagramName="Rectangle" vertex="1" parent="1">
          <mxGeometry x="-130" y="550" width="220" height="50" as="geometry" />
        </mxCell>
        <mxCell id="bJCT51N2lvBpbDXO-fiE-69" value="内嵌" style="text;html=1;strokeColor=none;fillColor=none;align=center;verticalAlign=middle;whiteSpace=wrap;rounded=0;fontStyle=1;fontSize=18;fontFamily=微软雅黑;" diagramCategory="general" diagramName="text" vertex="1" parent="1">
          <mxGeometry x="310" y="120" width="40" height="20" as="geometry" />
        </mxCell>
        <mxCell id="bJCT51N2lvBpbDXO-fiE-70" value="" style="group;fontFamily=微软雅黑;" connectable="0" vertex="1" parent="1">
          <mxGeometry x="-130" y="80" width="425" height="143" as="geometry" />
        </mxCell>
        <mxCell id="bJCT51N2lvBpbDXO-fiE-71" value="" style="rounded=0;whiteSpace=wrap;html=1;fontStyle=0;strokeColor=#000000;labelBackgroundColor=none;fillColor=none;fontSize=18;fontFamily=微软雅黑;" vertex="1" parent="bJCT51N2lvBpbDXO-fiE-70">
          <mxGeometry y="3" width="425" height="140" as="geometry" />
        </mxCell>
        <mxCell id="bJCT51N2lvBpbDXO-fiE-72" value="&lt;font style=&quot;font-size: 18px;&quot;&gt;BI报表&lt;/font&gt;" style="text;html=1;strokeColor=none;fillColor=none;align=center;verticalAlign=middle;whiteSpace=wrap;rounded=0;fontStyle=1;fontSize=15;fontFamily=微软雅黑;" diagramCategory="general" diagramName="text" vertex="1" parent="bJCT51N2lvBpbDXO-fiE-70">
          <mxGeometry x="145" width="130" height="30" as="geometry" />
        </mxCell>
        <mxCell id="bJCT51N2lvBpbDXO-fiE-73" value="近30日投放渠道趋势" style="rounded=0;whiteSpace=wrap;html=1;fontStyle=0;strokeColor=#000000;labelBackgroundColor=none;fillColor=none;fontSize=18;fontFamily=微软雅黑;" vertex="1" parent="bJCT51N2lvBpbDXO-fiE-70">
          <mxGeometry x="25" y="33" width="169" height="40" as="geometry" />
        </mxCell>
        <mxCell id="bJCT51N2lvBpbDXO-fiE-74" value="渠道访问用户" style="rounded=0;whiteSpace=wrap;html=1;fontStyle=0;strokeColor=#000000;labelBackgroundColor=none;fillColor=none;fontSize=18;fontFamily=微软雅黑;" vertex="1" parent="bJCT51N2lvBpbDXO-fiE-70">
          <mxGeometry x="25" y="93" width="169" height="40" as="geometry" />
        </mxCell>
        <mxCell id="bJCT51N2lvBpbDXO-fiE-75" value="渠道注册用户数" style="rounded=0;whiteSpace=wrap;html=1;fontStyle=0;strokeColor=#000000;labelBackgroundColor=none;fillColor=none;fontSize=18;fontFamily=微软雅黑;" vertex="1" parent="bJCT51N2lvBpbDXO-fiE-70">
          <mxGeometry x="220" y="33" width="185" height="40" as="geometry" />
        </mxCell>
        <mxCell id="bJCT51N2lvBpbDXO-fiE-76" value="渠道投放新老用户分布" style="rounded=0;whiteSpace=wrap;html=1;fontStyle=0;strokeColor=#000000;labelBackgroundColor=none;fillColor=none;fontSize=18;fontFamily=微软雅黑;" vertex="1" parent="bJCT51N2lvBpbDXO-fiE-70">
          <mxGeometry x="220" y="93" width="190" height="40" as="geometry" />
        </mxCell>
        <mxCell id="bJCT51N2lvBpbDXO-fiE-77" value="" style="group;fontFamily=微软雅黑;" connectable="0" vertex="1" parent="1">
          <mxGeometry x="360" y="83" width="620" height="140" as="geometry" />
        </mxCell>
        <mxCell id="bJCT51N2lvBpbDXO-fiE-78" value="" style="rounded=0;whiteSpace=wrap;html=1;fontStyle=0;strokeColor=#000000;labelBackgroundColor=none;fillColor=none;fontSize=18;fontFamily=微软雅黑;" vertex="1" parent="bJCT51N2lvBpbDXO-fiE-77">
          <mxGeometry width="620" height="140" as="geometry" />
        </mxCell>
        <mxCell id="bJCT51N2lvBpbDXO-fiE-79" value="渠道投放管理平台" style="text;html=1;strokeColor=none;fillColor=none;align=center;verticalAlign=middle;whiteSpace=wrap;rounded=0;fontStyle=1;fontSize=18;fontFamily=微软雅黑;" diagramCategory="general" diagramName="text" vertex="1" parent="bJCT51N2lvBpbDXO-fiE-77">
          <mxGeometry x="204.46808510638297" y="2" width="211.06382978723403" height="28" as="geometry" />
        </mxCell>
        <mxCell id="bJCT51N2lvBpbDXO-fiE-80" value="渠道效果" style="rounded=0;whiteSpace=wrap;html=1;fontStyle=0;strokeColor=#000000;labelBackgroundColor=none;fillColor=none;fontSize=18;fontFamily=微软雅黑;" vertex="1" parent="bJCT51N2lvBpbDXO-fiE-77">
          <mxGeometry x="39.99531914893616" y="45" width="244.04255319148933" height="40" as="geometry" />
        </mxCell>
        <mxCell id="bJCT51N2lvBpbDXO-fiE-81" value="投放计划总况" style="rounded=0;whiteSpace=wrap;html=1;fontStyle=0;strokeColor=#000000;labelBackgroundColor=none;fillColor=none;fontSize=18;fontFamily=微软雅黑;" vertex="1" parent="bJCT51N2lvBpbDXO-fiE-77">
          <mxGeometry x="340.0014893617021" y="45" width="244.04255319148933" height="40" as="geometry" />
        </mxCell>
        <mxCell id="bJCT51N2lvBpbDXO-fiE-82" value="单投放计划效果" style="rounded=0;whiteSpace=wrap;html=1;fontStyle=0;strokeColor=#000000;labelBackgroundColor=none;fillColor=none;fontSize=18;fontFamily=微软雅黑;" vertex="1" parent="bJCT51N2lvBpbDXO-fiE-77">
          <mxGeometry x="204.46808510638297" y="90" width="244.04255319148933" height="40" as="geometry" />
        </mxCell>
        <mxCell id="bJCT51N2lvBpbDXO-fiE-83" style="edgeStyle=orthogonalEdgeStyle;rounded=0;orthogonalLoop=1;jettySize=auto;html=1;exitX=1;exitY=0.5;exitDx=0;exitDy=0;entryX=0;entryY=0.5;entryDx=0;entryDy=0;fontFamily=微软雅黑;" edge="1" parent="1" source="bJCT51N2lvBpbDXO-fiE-71" target="bJCT51N2lvBpbDXO-fiE-78">
          <mxGeometry relative="1" as="geometry" />
        </mxCell>
        <mxCell id="bJCT51N2lvBpbDXO-fiE-84" value="渠道归因汇总数据" style="rounded=0;whiteSpace=wrap;html=1;strokeColor=#000000;fontSize=18;fontStyle=0;fontFamily=微软雅黑;" diagramCategory="general" diagramName="Rectangle" vertex="1" parent="1">
          <mxGeometry x="607" y="310" width="220" height="50" as="geometry" />
        </mxCell>
        <mxCell id="bJCT51N2lvBpbDXO-fiE-85" value="计划归因汇总数据" style="rounded=0;whiteSpace=wrap;html=1;strokeColor=#000000;fontSize=18;fontStyle=0;fontFamily=微软雅黑;" diagramCategory="general" diagramName="Rectangle" vertex="1" parent="1">
          <mxGeometry x="607" y="380" width="220" height="50" as="geometry" />
        </mxCell>
        <mxCell id="bJCT51N2lvBpbDXO-fiE-86" value="" style="shape=mxgraph.flowchart.transfer;whiteSpace=wrap;html=1;fillColor=#ffffff;strokeColor=#000000;strokeWidth=2;fontFamily=微软雅黑;" diagramCategory="Flowchart" diagramName="Transfer" vertex="1" parent="1">
          <mxGeometry x="470" y="377.5" width="90" height="32.5" as="geometry" />
        </mxCell>
        <mxCell id="bJCT51N2lvBpbDXO-fiE-87" value="汇总" style="text;html=1;strokeColor=none;fillColor=none;align=center;verticalAlign=middle;whiteSpace=wrap;rounded=0;fontStyle=1;fontSize=18;fontFamily=微软雅黑;" diagramCategory="general" diagramName="text" vertex="1" parent="1">
          <mxGeometry x="485" y="340" width="40" height="20" as="geometry" />
        </mxCell>
        <mxCell id="bJCT51N2lvBpbDXO-fiE-88" value="用户渠道归因轻度汇总数据" style="text;html=1;strokeColor=none;fillColor=none;align=center;verticalAlign=middle;whiteSpace=wrap;rounded=0;fontSize=18;fontStyle=1;fontFamily=微软雅黑;" diagramCategory="general" diagramName="text" vertex="1" parent="1">
          <mxGeometry x="26" y="250" width="246" height="55" as="geometry" />
        </mxCell>
        <mxCell id="bJCT51N2lvBpbDXO-fiE-89" value="" style="group;fontFamily=微软雅黑;" connectable="0" vertex="1" parent="1">
          <mxGeometry x="-80" y="300" width="500" height="170" as="geometry" />
        </mxCell>
        <mxCell id="bJCT51N2lvBpbDXO-fiE-90" value="扫码时间&amp;lt;注册时间" style="text;html=1;strokeColor=none;fillColor=none;align=center;verticalAlign=middle;whiteSpace=wrap;rounded=0;dashed=1;fontSize=12;fontFamily=微软雅黑;" diagramCategory="general" diagramName="text" vertex="1" parent="bJCT51N2lvBpbDXO-fiE-89">
          <mxGeometry x="302.08333333333326" y="165.27777777777774" width="163.75" as="geometry" />
        </mxCell>
        <mxCell id="bJCT51N2lvBpbDXO-fiE-91" value="" style="rounded=0;whiteSpace=wrap;html=1;dashed=1;fontSize=14;fontFamily=微软雅黑;" diagramCategory="general" diagramName="Rectangle" vertex="1" parent="bJCT51N2lvBpbDXO-fiE-89">
          <mxGeometry width="361.67371466726" height="101.27659574468086" as="geometry" />
        </mxCell>
        <mxCell id="bJCT51N2lvBpbDXO-fiE-92" value="登陆" style="rounded=0;whiteSpace=wrap;html=1;fontFamily=微软雅黑;" diagramCategory="general" diagramName="Rectangle" vertex="1" parent="bJCT51N2lvBpbDXO-fiE-89">
          <mxGeometry x="254.20356730624897" y="28.93617021276596" width="96.2737902370095" height="43.40425531914892" as="geometry" />
        </mxCell>
        <mxCell id="bJCT51N2lvBpbDXO-fiE-93" style="edgeStyle=orthogonalEdgeStyle;rounded=0;orthogonalLoop=1;jettySize=auto;html=1;entryX=0;entryY=0.5;entryDx=0;entryDy=0;fontSize=14;dashed=1;fontFamily=微软雅黑;" edge="1" parent="bJCT51N2lvBpbDXO-fiE-89" source="bJCT51N2lvBpbDXO-fiE-94" target="bJCT51N2lvBpbDXO-fiE-92">
          <mxGeometry relative="1" as="geometry" />
        </mxCell>
        <mxCell id="bJCT51N2lvBpbDXO-fiE-94" value="下载" style="rounded=0;whiteSpace=wrap;html=1;fontFamily=微软雅黑;" diagramCategory="general" diagramName="Rectangle" vertex="1" parent="bJCT51N2lvBpbDXO-fiE-89">
          <mxGeometry x="132.7006092164037" y="28.03191489361702" width="96.27249623445252" height="45.21276595744681" as="geometry" />
        </mxCell>
        <mxCell id="bJCT51N2lvBpbDXO-fiE-95" style="edgeStyle=orthogonalEdgeStyle;rounded=0;orthogonalLoop=1;jettySize=auto;html=1;exitX=1;exitY=0.5;exitDx=0;exitDy=0;entryX=0;entryY=0.5;entryDx=0;entryDy=0;fontSize=14;dashed=1;fontFamily=微软雅黑;" edge="1" parent="bJCT51N2lvBpbDXO-fiE-89" source="bJCT51N2lvBpbDXO-fiE-96" target="bJCT51N2lvBpbDXO-fiE-94">
          <mxGeometry relative="1" as="geometry" />
        </mxCell>
        <mxCell id="bJCT51N2lvBpbDXO-fiE-96" value="扫码" style="rounded=0;whiteSpace=wrap;html=1;fontFamily=微软雅黑;" diagramCategory="general" diagramName="Rectangle" vertex="1" parent="bJCT51N2lvBpbDXO-fiE-89">
          <mxGeometry x="5.498216864476568" y="28.93617021276596" width="96.2737902370095" height="43.40425531914892" as="geometry" />
        </mxCell>
        <mxCell id="bJCT51N2lvBpbDXO-fiE-97" value="&lt;font style=&quot;font-size: 12px;&quot;&gt;ipua算法匹配user_id&lt;/font&gt;" style="text;html=1;strokeColor=none;fillColor=none;align=center;verticalAlign=middle;whiteSpace=wrap;rounded=0;dashed=1;fontSize=14;fontFamily=微软雅黑;" diagramCategory="general" diagramName="text" vertex="1" parent="bJCT51N2lvBpbDXO-fiE-89">
          <mxGeometry x="80.43421052631578" y="81.92521739130434" width="200.81578947368422" height="14.464782608695652" as="geometry" />
        </mxCell>
        <mxCell id="bJCT51N2lvBpbDXO-fiE-98" value="注册" style="rounded=0;whiteSpace=wrap;html=1;fontFamily=微软雅黑;" diagramCategory="general" diagramName="Rectangle" vertex="1" parent="bJCT51N2lvBpbDXO-fiE-89">
          <mxGeometry x="403.7262097629904" y="25.319148936170215" width="96.2737902370095" height="43.40425531914892" as="geometry" />
        </mxCell>
        <mxCell id="bJCT51N2lvBpbDXO-fiE-99" style="edgeStyle=orthogonalEdgeStyle;rounded=0;orthogonalLoop=1;jettySize=auto;html=1;exitX=0.5;exitY=0;exitDx=0;exitDy=0;entryX=0.5;entryY=0;entryDx=0;entryDy=0;fontSize=14;dashed=1;fontFamily=微软雅黑;" edge="1" parent="bJCT51N2lvBpbDXO-fiE-89" source="bJCT51N2lvBpbDXO-fiE-94" target="bJCT51N2lvBpbDXO-fiE-98">
          <mxGeometry relative="1" as="geometry" />
        </mxCell>
        <mxCell id="bJCT51N2lvBpbDXO-fiE-100" value="" style="rounded=0;whiteSpace=wrap;html=1;fontSize=14;fontFamily=微软雅黑;" diagramCategory="general" diagramName="Rectangle" vertex="1" parent="bJCT51N2lvBpbDXO-fiE-89">
          <mxGeometry x="319.6217534497427" y="115.74468085106383" width="100.93219944202606" height="43.40425531914892" as="geometry" />
        </mxCell>
        <mxCell id="bJCT51N2lvBpbDXO-fiE-101" style="edgeStyle=orthogonalEdgeStyle;rounded=0;orthogonalLoop=1;jettySize=auto;html=1;entryX=0;entryY=0.5;entryDx=0;entryDy=0;fontSize=14;fontFamily=微软雅黑;" edge="1" parent="bJCT51N2lvBpbDXO-fiE-89" target="bJCT51N2lvBpbDXO-fiE-100">
          <mxGeometry relative="1" as="geometry">
            <mxPoint x="175.55555555555554" y="99.65517241379311" as="sourcePoint" />
            <Array as="points">
              <mxPoint x="175.55555555555554" y="137.75862068965517" />
            </Array>
          </mxGeometry>
        </mxCell>
        <mxCell id="bJCT51N2lvBpbDXO-fiE-102" style="edgeStyle=orthogonalEdgeStyle;rounded=0;orthogonalLoop=1;jettySize=auto;html=1;exitX=0.5;exitY=1;exitDx=0;exitDy=0;entryX=1;entryY=0.5;entryDx=0;entryDy=0;fontSize=14;fontFamily=微软雅黑;" edge="1" parent="bJCT51N2lvBpbDXO-fiE-89" source="bJCT51N2lvBpbDXO-fiE-98" target="bJCT51N2lvBpbDXO-fiE-100">
          <mxGeometry relative="1" as="geometry" />
        </mxCell>
        <mxCell id="bJCT51N2lvBpbDXO-fiE-103" value="&lt;font style=&quot;font-size: 12px;&quot;&gt;user_id末次归因渠道&lt;/font&gt;" style="text;html=1;strokeColor=none;fillColor=none;align=center;verticalAlign=middle;whiteSpace=wrap;rounded=0;dashed=1;fontFamily=微软雅黑;" diagramCategory="general" diagramName="text" vertex="1" parent="bJCT51N2lvBpbDXO-fiE-89">
          <mxGeometry x="328.0327700699115" y="137.44680851063825" width="84.1101662016884" as="geometry" />
        </mxCell>
      </root>
    </mxGraphModel>
  </diagram>
</mxfile>
